<svg width="40" height="33" viewBox="0 0 40 33" fill="none" xmlns="http://www.w3.org/2000/svg">
<path d="M26.4199 24.4889C26.4199 24.4889 25.1853 24.4889 25.1853 23.1395C25.1853 21.7901 26.4199 17.7419 32.5927 17.7419C38.7655 17.7419 40.0001 21.7901 40.0001 23.1395C40.0001 24.4889 38.7655 24.4889 38.7655 24.4889H26.4199ZM32.5927 16.3926C33.575 16.3926 34.517 15.9661 35.2116 15.2069C35.9062 14.4477 36.2964 13.418 36.2964 12.3444C36.2964 11.2708 35.9062 10.2411 35.2116 9.48191C34.517 8.72274 33.575 8.29623 32.5927 8.29623C31.6104 8.29623 30.6684 8.72274 29.9738 9.48191C29.2792 10.2411 28.889 11.2708 28.889 12.3444C28.889 13.418 29.2792 14.4477 29.9738 15.2069C30.6684 15.9661 31.6104 16.3926 32.5927 16.3926V16.3926Z" fill="#385983"/>
<path d="M1.23457 24.4889C1.23457 24.4889 0 24.4889 0 23.1395C0 21.7901 1.23457 17.7419 7.40741 17.7419C13.5802 17.7419 14.8148 21.7901 14.8148 23.1395C14.8148 24.4889 13.5802 24.4889 13.5802 24.4889H1.23457ZM7.40741 16.3926C8.38969 16.3926 9.33174 15.9661 10.0263 15.2069C10.7209 14.4477 11.1111 13.418 11.1111 12.3444C11.1111 11.2708 10.7209 10.2411 10.0263 9.48191C9.33174 8.72274 8.38969 8.29623 7.40741 8.29623C6.42512 8.29623 5.48307 8.72274 4.78849 9.48191C4.09391 10.2411 3.7037 11.2708 3.7037 12.3444C3.7037 13.418 4.09391 14.4477 4.78849 15.2069C5.48307 15.9661 6.42512 16.3926 7.40741 16.3926V16.3926Z" fill="#385983"/>
<path d="M7.40212 33C7.40212 33 4.88135 33 4.88135 30.25C4.88135 27.5 7.40212 19.25 20.006 19.25C32.6099 19.25 35.1306 27.5 35.1306 30.25C35.1306 33 32.6099 33 32.6099 33H7.40212ZM20.006 16.5C22.0116 16.5 23.9352 15.6308 25.3534 14.0836C26.7716 12.5365 27.5683 10.438 27.5683 8.25C27.5683 6.06196 26.7716 3.96354 25.3534 2.41637C23.9352 0.869194 22.0116 0 20.006 0C18.0003 0 16.0768 0.869194 14.6586 2.41637C13.2404 3.96354 12.4437 6.06196 12.4437 8.25C12.4437 10.438 13.2404 12.5365 14.6586 14.0836C16.0768 15.6308 18.0003 16.5 20.006 16.5V16.5Z" fill="#385983"/>
</svg>
