<svg width="40" height="33" viewBox="0 0 40 33" fill="none" xmlns="http://www.w3.org/2000/svg">
<path d="M20.0008 25.3838C19.7687 25.3838 19.5406 25.3261 19.3391 25.2164L7.66793 18.8665C7.56652 18.8107 7.45147 18.7814 7.33436 18.7815C7.21726 18.7815 7.10224 18.8109 7.00086 18.8667C6.89949 18.9225 6.81535 19.0028 6.75691 19.0994C6.69847 19.196 6.6678 19.3055 6.66797 19.417V25.3838C6.66777 25.6103 6.73127 25.8328 6.85186 26.028C6.97245 26.2233 7.14576 26.3843 7.35378 26.4943L19.3533 32.8403C19.5514 32.945 19.7742 33 20.0008 33C20.2274 33 20.4502 32.945 20.6483 32.8403L32.6478 26.4943C32.8558 26.3843 33.0291 26.2233 33.1497 26.028C33.2703 25.8328 33.3338 25.6103 33.3336 25.3838V19.417C33.3338 19.3055 33.3031 19.196 33.2447 19.0994C33.1862 19.0028 33.1021 18.9225 33.0007 18.8667C32.8993 18.8109 32.7843 18.7815 32.6672 18.7815C32.5501 18.7814 32.4351 18.8107 32.3336 18.8665L20.6624 25.2164C20.4609 25.3261 20.2329 25.3838 20.0008 25.3838Z" fill="#385983"/>
<path d="M39.9933 11.3037V11.295C39.9718 11.0938 39.9 10.9004 39.7841 10.731C39.6681 10.5615 39.5113 10.4209 39.3267 10.3208L20.6607 0.167306C20.4593 0.0576696 20.2312 0 19.9991 0C19.767 0 19.539 0.0576696 19.3375 0.167306L0.671513 10.3208C0.46751 10.4319 0.297958 10.5923 0.180033 10.7858C0.0621084 10.9792 0 11.199 0 11.4227C0 11.6464 0.0621084 11.8661 0.180033 12.0596C0.297958 12.2531 0.46751 12.4135 0.671513 12.5245L19.3375 22.678C19.539 22.7877 19.767 22.8453 19.9991 22.8453C20.2312 22.8453 20.4593 22.7877 20.6607 22.678L37.0834 13.7453C37.1088 13.7313 37.1376 13.724 37.1669 13.724C37.1963 13.7241 37.225 13.7314 37.2504 13.7454C37.2757 13.7594 37.2968 13.7796 37.3114 13.8038C37.3259 13.828 37.3336 13.8554 37.3334 13.8833V25.3481C37.3334 26.0311 37.8851 26.6173 38.6026 26.6514C38.7828 26.6597 38.963 26.633 39.1321 26.573C39.3012 26.5131 39.4558 26.421 39.5865 26.3025C39.7171 26.184 39.8212 26.0414 39.8922 25.8835C39.9633 25.7256 40 25.5556 40 25.3838V11.4227C39.9999 11.3829 39.9977 11.3432 39.9933 11.3037V11.3037Z" fill="#385983"/>
</svg>
