<svg width="16" height="16" viewBox="0 0 16 16" fill="none" xmlns="http://www.w3.org/2000/svg">
<path d="M15.414 0.585573C15.0389 0.210631 14.5303 0 14 0C13.4697 0 12.9611 0.210631 12.586 0.585573L5 8.17157V10.9996H7.828L15.414 3.41357C15.7889 3.03852 15.9996 2.5299 15.9996 1.99957C15.9996 1.46924 15.7889 0.960628 15.414 0.585573Z" fill="#385983"/>
<path fill-rule="evenodd" clip-rule="evenodd" d="M0 3.99957C0 3.46914 0.210714 2.96043 0.585786 2.58536C0.960859 2.21029 1.46957 1.99957 2 1.99957H6C6.26522 1.99957 6.51957 2.10493 6.70711 2.29247C6.89464 2.48 7 2.73436 7 2.99957C7 3.26479 6.89464 3.51914 6.70711 3.70668C6.51957 3.89422 6.26522 3.99957 6 3.99957H2V13.9996H12V9.99957C12 9.73436 12.1054 9.48 12.2929 9.29247C12.4804 9.10493 12.7348 8.99957 13 8.99957C13.2652 8.99957 13.5196 9.10493 13.7071 9.29247C13.8946 9.48 14 9.73436 14 9.99957V13.9996C14 14.53 13.7893 15.0387 13.4142 15.4138C13.0391 15.7889 12.5304 15.9996 12 15.9996H2C1.46957 15.9996 0.960859 15.7889 0.585786 15.4138C0.210714 15.0387 0 14.53 0 13.9996V3.99957Z" fill="#385983"/>
</svg>
