<svg width="300" height="97" viewBox="0 0 300 97" fill="none" xmlns="http://www.w3.org/2000/svg">
<g clip-path="url(#clip0_3_92)">
<path fill-rule="evenodd" clip-rule="evenodd" d="M200.104 85.6644C255.099 85.6644 300 85.9027 300 86.3002C300 86.618 255.099 86.9359 200.104 86.9359C145.108 86.9359 100.207 86.6974 100.207 86.3002C100.207 85.9823 145.108 85.6644 200.104 85.6644ZM200.104 70.5658C255.099 70.5658 300 70.8043 300 71.2015C300 71.5193 255.099 71.8372 200.104 71.8372C145.108 71.8372 100.207 71.5989 100.207 71.2015C100.207 70.8836 145.108 70.5658 200.104 70.5658Z" fill="#F53E4B"/>
<path d="M276.651 35.9186C279.376 35.9186 281.42 35.2829 282.846 34.0114C284.27 32.74 285.012 30.5945 285.012 27.6542C285.012 22.5684 282.164 20.0255 276.466 20.0255H272.379V35.8393H276.651V35.9186ZM276.528 11.92C282.906 11.92 287.924 13.2709 291.454 15.8933C294.984 18.5157 296.78 22.489 296.78 27.6542C296.78 33.1374 295.046 37.19 291.577 39.9715C288.109 42.7529 283.403 44.1037 277.58 44.1037H272.316V60.2353H260.798V11.92H276.528ZM233.918 41.6404H244.138L239.059 20.2639L233.918 41.6404ZM248.659 60.3148L246.119 49.9048H231.937L229.459 60.3148H217.506L232.247 11.92H246.181L260.86 60.3148H248.659ZM196.015 60.3148V11.92H225L223.823 20.105H207.536V32.9785H221.718V41.1636H207.536V60.3942H196.015V60.3148ZM185.116 3.73502C187.036 3.73502 188.584 4.29127 189.823 5.48325C191.061 6.67526 191.681 8.1851 191.681 10.0128C191.681 11.8405 191.061 13.3504 189.823 14.5424C188.584 15.7344 187.036 16.2906 185.116 16.2906C183.196 16.2906 181.648 15.7344 180.409 14.5424C179.17 13.3504 178.613 11.8405 178.613 10.0128C178.613 8.1851 179.232 6.67526 180.409 5.48325C181.648 4.29127 183.196 3.73502 185.116 3.73502ZM190.752 23.2836V60.3942H179.666V23.2836H190.752ZM164.616 22.0916C167.837 22.0916 170.376 23.0452 172.172 25.032C173.968 27.0185 174.897 29.7203 174.897 33.2964V60.3942H163.811V35.1239C163.811 33.2964 163.501 31.9453 162.944 31.2303C162.387 30.515 161.458 30.1178 160.343 30.1178C158.113 30.1178 155.946 31.7071 153.902 34.965V60.3148H142.816V23.2836H152.477L153.221 27.6542C154.831 25.8266 156.503 24.3961 158.361 23.4426C160.281 22.489 162.325 22.0916 164.616 22.0916ZM138.233 44.2626C138.233 47.6001 137.49 50.5405 136.065 53.1627C134.641 55.7852 132.473 57.8513 129.624 59.2817C126.776 60.7916 123.307 61.5067 119.158 61.5067C112.965 61.5067 108.258 59.9174 105.037 56.8181C101.817 53.7191 100.207 49.5073 100.207 44.2626V11.92H111.726V43.7858C111.726 46.8851 112.345 49.1894 113.522 50.6994C114.699 52.2091 116.619 53.0038 119.158 53.0038C121.759 53.0038 123.679 52.2091 124.856 50.6994C126.032 49.1894 126.652 46.8851 126.652 43.7858V11.92H138.171V44.2626H138.233Z" fill="black"/>
<path d="M111.416 83.3601C112.345 83.3601 113.151 82.9626 113.77 82.168L113.46 81.7708C112.903 82.4858 112.222 82.8037 111.416 82.8037C109.744 82.8037 108.506 81.2144 108.506 79.1483C108.506 77.0028 109.744 75.4929 111.416 75.4929C112.16 75.4929 112.841 75.8107 113.46 76.526L113.77 76.1286C113.213 75.3339 112.345 74.9367 111.416 74.9367C109.497 74.9367 108.01 76.7643 108.01 79.1483C108.01 81.5322 109.497 83.3601 111.416 83.3601Z" fill="#070707"/>
<path d="M245.934 80.022H244.076V75.4926H245.934C247.358 75.4926 248.1 76.2873 248.1 77.797C248.04 79.2274 247.296 80.022 245.934 80.022ZM245.934 74.9362H243.581V83.2802H244.076V80.5784H245.934C247.605 80.5784 248.597 79.5452 248.597 77.797C248.535 75.9694 247.543 74.9362 245.934 74.9362ZM236.087 82.8034C234.413 82.8034 233.176 81.2141 233.176 79.148C233.176 77.0819 234.413 75.4926 236.087 75.4926C237.758 75.4926 238.997 77.0819 238.997 79.148C238.997 81.2141 237.758 82.8034 236.087 82.8034ZM236.087 83.3596C238.005 83.3596 239.492 81.532 239.492 79.148C239.492 76.6845 238.005 74.9362 236.087 74.9362C234.103 74.9362 232.679 76.7641 232.679 79.148C232.679 81.532 234.103 83.3596 236.087 83.3596ZM229.644 83.2802H230.141V74.9362H229.644V83.2802ZM222.522 80.022V75.4926H224.381C225.805 75.4926 226.549 76.2873 226.549 77.797C226.549 79.2274 225.805 80.1016 224.381 80.1016H222.522V80.022ZM227.106 83.2802L225.495 80.3399C226.487 79.9427 227.044 79.0684 227.044 77.7176C227.044 75.9694 226.052 74.8569 224.381 74.8569H222.028V83.2006H222.522V80.4988H224.381C224.628 80.4988 224.815 80.4988 225 80.4195L226.549 83.2006H227.106V83.2802ZM214.968 80.4195L216.702 75.572L218.435 80.4195H214.968ZM219.427 83.2802H219.922L216.887 74.9362H216.392L213.357 83.2802H213.852L214.658 80.8963H218.435L219.427 83.2802ZM218.126 72.8701H217.444L216.144 74.3005H216.639L218.126 72.8701ZM209.702 83.2802H210.199V75.4926H212.552V74.9362H207.349V75.4926H209.702V83.2802ZM204.811 83.2802H205.305V74.9362H204.811V83.2802ZM199.917 83.3596C201.528 83.3596 202.27 82.3266 202.27 81.1345C202.27 78.1148 198.183 79.5452 198.183 77.0819C198.183 76.1283 198.741 75.413 200.042 75.413C200.661 75.413 201.281 75.6515 201.838 76.1283L202.023 75.6515C201.528 75.1747 200.784 74.9362 200.042 74.9362C198.431 74.9362 197.689 75.9694 197.689 77.1613C197.689 80.2605 201.776 78.7506 201.776 81.2935C201.776 82.1677 201.218 82.9624 199.855 82.9624C198.988 82.9624 198.121 82.4856 197.689 81.9292L197.502 82.406C197.998 82.8828 198.988 83.3596 199.917 83.3596ZM191.061 80.022V75.4926H192.919C194.344 75.4926 195.088 76.2873 195.088 77.797C195.088 79.2274 194.344 80.1016 192.919 80.1016H191.061V80.022ZM195.705 83.2802L194.096 80.3399C195.088 79.9427 195.645 79.0684 195.645 77.7176C195.645 75.9694 194.653 74.8569 192.981 74.8569H190.628V83.2006H191.123V80.4988H192.981C193.229 80.4988 193.415 80.4988 193.601 80.4195L195.148 83.2006H195.705V83.2802ZM183.939 82.7238V79.3069H187.407V78.7506H183.939V75.4926H187.841V74.9362H183.444V83.2802H187.965V82.7238H183.939ZM181.09 74.9362L178.427 82.4856L175.764 74.9362H175.269L178.179 83.2802H178.675L181.586 74.9362H181.09ZM286.623 82.8034C284.952 82.8034 283.713 81.2141 283.713 79.148C283.713 77.0819 284.952 75.4926 286.623 75.4926C288.294 75.4926 289.533 77.0819 289.533 79.148C289.533 81.2141 288.294 82.8034 286.623 82.8034ZM286.623 83.3596C288.544 83.3596 290.03 81.532 290.03 79.148C290.03 76.6845 288.544 74.9362 286.623 74.9362C284.642 74.9362 283.216 76.7641 283.216 79.148C283.216 81.532 284.702 83.3596 286.623 83.3596ZM279.006 83.3596C280.615 83.3596 281.359 82.3266 281.359 81.1345C281.359 78.1148 277.27 79.5452 277.27 77.0819C277.27 76.1283 277.829 75.413 279.129 75.413C279.748 75.413 280.368 75.6515 280.925 76.1283L281.11 75.6515C280.615 75.1747 279.873 74.9362 279.129 74.9362C277.52 74.9362 276.776 75.9694 276.776 77.1613C276.776 80.2605 280.863 78.7506 280.863 81.2935C280.863 82.1677 280.305 82.9624 278.944 82.9624C278.077 82.9624 277.21 82.4856 276.776 81.9292L276.59 82.406C277.085 82.8828 278.015 83.3596 279.006 83.3596ZM273.618 83.2802H274.113V74.9362H273.618V83.2802ZM273.368 74.2212H273.865L275.352 72.7908H274.67L273.368 74.2212ZM266.618 80.4195L268.352 75.572L270.088 80.4195H266.618ZM271.078 83.2802H271.574L268.539 74.9362H268.042L265.009 83.2802H265.504L266.309 80.8963H270.088L271.078 83.2802ZM259.002 80.022V75.4926H260.86C262.284 75.4926 263.026 76.2873 263.026 77.797C263.026 79.2274 262.284 80.1016 260.86 80.1016H259.002V80.022ZM263.646 83.2802L262.037 80.3399C263.026 79.9427 263.583 79.0684 263.583 77.7176C263.583 75.9694 262.594 74.8569 260.92 74.8569H258.567V83.2006H259.064V80.4988H260.92C261.168 80.4988 261.355 80.4988 261.54 80.4195L263.089 83.2006H263.646V83.2802ZM251.507 80.4195L253.241 75.572L254.975 80.4195H251.507ZM255.966 83.2802H256.461L253.426 74.9362H252.931L249.896 83.2802H250.393L251.198 80.8963H254.975L255.966 83.2802ZM172.791 83.2802H173.287V74.9362H172.791V83.2802ZM169.137 74.9362V82.2471L164.678 74.9362H164.245V83.2802H164.74V75.9694L169.199 83.2802H169.571V74.9362H169.137ZM158.547 83.3596C160.157 83.3596 161.148 82.1677 161.148 79.7837V74.9362H160.653V79.7042C160.653 81.7703 159.847 82.8034 158.485 82.8034C157.123 82.8034 156.317 81.8498 156.317 79.7042V74.9362H155.822V79.7837C155.946 82.1677 156.937 83.3596 158.547 83.3596ZM148.514 82.8034C146.842 82.8034 145.603 81.2141 145.603 79.148C145.603 77.0819 146.842 75.4926 148.514 75.4926C150.186 75.4926 151.425 77.0819 151.425 79.148C151.425 81.2141 150.186 82.8034 148.514 82.8034ZM148.514 83.3596C150.434 83.3596 151.92 81.532 151.92 79.148C151.92 76.6845 150.434 74.9362 148.514 74.9362C146.532 74.9362 145.108 76.7641 145.108 79.148C145.108 81.532 146.532 83.3596 148.514 83.3596ZM138.605 80.022V75.4926H140.463C141.887 75.4926 142.63 76.2873 142.63 77.797C142.63 79.2274 141.887 80.1016 140.463 80.1016H138.605V80.022ZM143.188 83.2802L141.577 80.3399C142.568 79.9427 143.126 79.0684 143.126 77.7176C143.126 75.9694 142.135 74.8569 140.463 74.8569H138.109V83.2006H138.605V80.4988H140.463C140.71 80.4988 140.896 80.4988 141.082 80.4195L142.63 83.2006H143.188V83.2802ZM133.217 83.2802H133.712V75.4926H136.065V74.9362H130.863V75.4926H133.217V83.2802ZM128.324 74.9362V82.2471L123.865 74.9362H123.431V83.2802H123.927V75.9694L128.386 83.2802H128.758V74.9362H128.324ZM116.804 82.7238V79.3069H120.273V78.7506H116.804V75.4926H120.706V74.9362H116.309V83.2802H120.83V82.7238H116.804Z" fill="#070707"/>
<path fill-rule="evenodd" clip-rule="evenodd" d="M46.6963 95.7564C68.0629 95.7564 88.0051 74.2212 91.1017 47.8384C91.4732 44.8983 91.5971 42.0376 91.4732 39.2561C99.4006 36.5543 107.638 34.8854 115.813 34.6472C115.998 34.6472 115.998 34.4086 115.751 34.3293C89.2437 32.9783 67.2578 41.4018 46.0149 56.0235C37.0347 40.8455 22.2948 32.6604 0.432789 29.0846C-0.124602 29.005 -0.124602 29.5614 0.18506 29.6407C6.25442 31.0711 11.6425 32.8989 16.4113 35.1239C14.9869 39.1768 13.996 43.4679 13.5005 47.918C10.4039 74.2212 25.3297 95.7564 46.6963 95.7564ZM89.801 27.6542C74.6896 29.2435 59.3923 36.2365 48.1207 43.6269C40.3172 34.1704 30.3461 28.2103 20.9323 25.0317C29.2312 10.1716 43.2899 0 57.906 0C73.451 0 85.5278 11.3636 89.801 27.6542ZM107.885 28.4489C108.195 28.4489 108.133 28.6871 107.885 28.6871C95.0033 28.2103 84.6607 30.515 72.522 34.4882C82.3073 30.356 95.375 27.4157 107.885 28.4489ZM110.363 30.515C110.672 30.515 110.61 30.7532 110.363 30.7532C97.4806 30.2764 87.2619 32.1043 75.123 35.9979C84.8465 31.9453 97.8523 29.4024 110.363 30.515ZM113.15 32.4221C113.459 32.4221 113.397 32.6604 113.15 32.6604C100.268 32.1836 89.863 33.6936 77.7243 37.5873C87.4476 33.5346 100.639 31.389 113.15 32.4221ZM32.1422 32.4221C21.6755 26.78 13.996 24.8728 5.57316 23.5219C5.32545 23.4424 5.32545 23.0451 5.69704 23.1246C14.1198 23.8398 24.4626 27.0978 32.1422 32.4221ZM30.8415 34.3293C20.375 28.6871 12.0141 26.621 3.5294 25.3496C3.28167 25.2702 3.28167 24.8728 3.65326 24.9524C12.0761 25.5881 23.0999 29.005 30.8415 34.3293ZM29.479 36.5543C19.0125 30.9122 10.0942 28.4489 1.67143 27.1774C1.42371 27.0978 1.42371 26.7006 1.7953 26.78C10.2181 27.4157 21.7994 31.1507 29.479 36.5543Z" fill="#385983"/>
<path fill-rule="evenodd" clip-rule="evenodd" d="M52.5189 17.7212L53.324 21.2971H56.4826L53.8194 23.5222L54.6245 27.0981L52.1474 24.873L49.4842 27.0981L50.6608 23.5222L48.1837 21.2971H51.3423L52.5189 17.7212ZM19.1374 43.4682L19.6948 46.0111H21.9863L20.0045 47.6004L20.5619 50.1433L18.7658 48.554L16.784 50.1433L17.651 47.6004L15.855 46.0111H18.1465L19.1374 43.4682ZM22.0482 59.8381L22.6056 62.381H24.8971L22.9153 63.9703L23.4727 66.5132L21.6766 64.9238L19.6948 66.5132L20.5619 63.9703L18.7658 62.381H21.0573L22.0482 59.8381ZM26.6312 56.5801L26.0119 58.3283H24.4636L25.7022 59.4409L25.0829 61.1891L26.3834 60.0766L27.6222 61.1891L27.2505 59.4409L28.551 58.3283H27.0027L26.6312 56.5801ZM63.481 71.0428L63.7286 72.2347H64.7815L63.9144 72.95L64.1622 74.1418L63.3571 73.4268L62.49 74.1418L62.8617 72.95L62.0565 72.2347H63.1093L63.481 71.0428ZM68.8071 69.6918L69.0547 70.8839H70.1077L69.2406 71.5989L69.4884 72.791L68.6832 72.0757L67.8162 72.791L68.1878 71.5989L67.3827 70.8839H68.4354L68.8071 69.6918ZM72.1514 71.2811L72.3991 72.4732H73.4521L72.585 73.1883L72.8326 74.3804L72.0276 73.665L71.1606 74.3804L71.5321 73.1883L70.7269 72.4732H71.7799L72.1514 71.2811ZM77.7873 68.9767L77.9731 70.1686H79.0258L78.097 70.8839L78.2827 72.0757L77.5395 71.3607L76.6106 72.0757L77.106 70.8839L76.3628 70.1686H77.4158L77.7873 68.9767ZM79.0258 54.8316L79.3356 56.9773H81.2554L79.5214 58.3283L79.831 60.4738L78.4685 59.123L76.7343 60.4738L77.6014 58.3283L76.2389 56.9773H78.1589L79.0258 54.8316ZM67.5064 75.0954L67.8781 76.685H69.3025L68.0639 77.7179L68.4354 79.3072L67.3208 78.2743L66.082 79.3072L66.6395 77.7179L65.5247 76.685H66.9491L67.5064 75.0954ZM59.6412 75.8903L60.1366 77.9564H61.9946L60.3843 79.2279L60.8797 81.294L59.4553 80.0225L57.8451 81.294L58.5263 79.2279L57.0399 77.9564H58.898L59.6412 75.8903ZM68.1259 80.4993L68.4354 81.9297H69.6742L68.6213 82.8037L68.931 84.2341L67.9401 83.3601L66.8871 84.2341L67.3208 82.8037L66.3298 81.9297H67.5684L68.1259 80.4993ZM30.9664 65.6392L31.3381 67.3078H32.8245L31.5857 68.341L31.9574 70.0096L30.8425 68.9767L29.604 70.0096L30.1613 68.341L29.0466 67.3078H30.533L30.9664 65.6392ZM29.2942 71.9168L29.6659 73.5857H31.1523L29.9137 74.6189L30.2852 76.2875L29.1705 75.2544L27.8698 76.2875L28.4273 74.6189L27.3125 73.5857H28.7988L29.2942 71.9168ZM36.2306 76.6054L36.7882 78.9893H38.9558L37.1597 80.4993L37.717 82.8833L36.045 81.3733L34.2489 82.8833L35.054 80.4993L33.3818 78.9893H35.5494L36.2306 76.6054ZM43.229 63.6524L43.6007 65.4006H45.149L43.7864 66.5132L44.158 68.2614L42.9195 67.1489L41.5568 68.2614L42.1143 66.5132L40.8756 65.4006H42.4239L43.229 63.6524ZM48.4313 58.7255L48.803 60.4738H50.3513L48.9888 61.5863L49.3603 63.3345L48.1217 62.222L46.7593 63.3345L47.3166 61.5863L46.0779 60.4738H47.6262L48.4313 58.7255ZM53.6338 63.0167L54.0053 64.7649H55.5536L54.1911 65.8774L54.5626 67.6257L53.324 66.5132L51.9616 67.6257L52.5189 65.8774L51.2803 64.7649H52.8286L53.6338 63.0167ZM46.7593 67.7053L46.3256 69.1356H45.0871L46.0779 70.0096L45.5825 71.44L46.6354 70.566L47.6262 71.44L47.3166 69.9303L48.3693 69.056H47.1308L46.7593 67.7053ZM47.1308 74.6982L47.5644 76.6054H49.2984L47.812 77.7975L48.2456 79.7047L46.883 78.5126L45.3966 79.7047L46.0161 77.7975L44.6534 76.6054H46.3876L47.1308 74.6982ZM57.1638 71.8375L57.4116 72.8704H58.3404L57.5973 73.5061L57.8451 74.5393L57.1638 73.9036L56.4206 74.5393L56.7304 73.5061L56.049 72.8704H56.978L57.1638 71.8375ZM29.9755 50.5405L30.471 52.8451H32.5767L30.8425 54.2755L31.3381 56.5801L29.7279 55.1495L27.9937 56.5801L28.7369 54.2755L27.1266 52.8451H29.2323L29.9755 50.5405ZM19.8187 67.6257L20.1902 69.1356H21.5527L20.376 70.0892L20.7477 71.5989L19.6948 70.7249L18.5181 71.6785L19.0135 70.1686L17.9607 69.215H19.3232L19.8187 67.6257ZM48.0598 87.4127L48.4313 88.9226H49.794L48.6171 89.8762L48.9888 91.3859L47.9359 90.4324L46.7593 91.3859L47.2547 89.8762L46.2017 88.9226H47.5644L48.0598 87.4127ZM81.0078 62.7784L81.3793 64.2881H82.7419L81.5651 65.2417L81.9368 66.7517L80.8839 65.7981L79.7073 66.7517L80.2027 65.2417L79.1497 64.2881H80.5122L81.0078 62.7784ZM85.1571 56.898L85.5288 58.4077H86.8913L85.7147 59.3613L86.0862 60.8712L85.0334 59.9177L83.8566 60.8712L84.352 59.3613L83.2993 58.4077H84.6617L85.1571 56.898ZM61.4371 51.8915L61.8088 53.4012H63.1712L61.9946 54.3548L62.3661 55.8648L61.3134 54.9112L60.0746 55.8648L60.5702 54.3548L59.5173 53.4012H60.8797L61.4371 51.8915Z" fill="#FDFDFD"/>
<path fill-rule="evenodd" clip-rule="evenodd" d="M0.248047 29.0841C0.433844 28.6869 0.805437 27.8922 1.48669 27.018C1.48669 27.0976 1.54862 27.1769 1.67249 27.1769C10.1572 28.4484 19.0135 30.9119 29.4801 36.5541C21.8005 31.1502 10.2191 27.4154 1.79635 26.7797C1.73442 26.7797 1.67249 26.7797 1.67249 26.7797C2.53955 25.5876 3.7782 24.3162 5.38844 23.3626C5.38844 23.4421 5.45036 23.601 5.57422 23.601C14.0589 24.8726 21.6766 26.8591 32.1431 32.5012C24.4635 27.0976 14.1209 23.8394 5.6981 23.1242C9.53788 21.2965 20.2522 24.7136 20.9334 24.9519C30.3472 28.1305 40.3183 34.1701 48.1836 43.6264C57.3495 37.587 69.3026 31.8655 81.5652 29.0841L89.6782 27.7333H89.8021C90.8551 27.6537 104.356 26.5412 107.824 28.528C95.3141 27.4948 82.2464 30.5145 72.5231 34.488C84.6618 30.5941 95.0044 28.2894 107.886 28.6869C108.01 28.6869 108.072 28.6869 108.072 28.6073C111.045 30.4351 114.699 33.5342 115.69 34.4084C89.1828 33.137 67.2587 41.4809 46.016 56.1026C37.0358 40.8452 22.2959 32.6602 0.433844 29.0841C0.371912 29.0841 0.309979 29.0841 0.248047 29.0841ZM110.364 30.5145C97.8532 29.402 84.8475 31.9448 75.1241 35.9977C87.2628 32.1038 97.4817 30.2762 110.364 30.753C110.611 30.6734 110.611 30.5145 110.364 30.5145ZM113.151 32.4216C100.64 31.3887 87.5106 33.5342 77.7873 37.587C89.926 33.6931 100.331 32.2627 113.212 32.6602C113.398 32.6602 113.398 32.5012 113.151 32.4216ZM30.8426 34.3291C23.163 29.0048 12.0771 25.5876 3.65432 24.9519C3.28273 24.8726 3.28273 25.3493 3.53046 25.3493C11.9533 26.6208 20.3142 28.6869 30.8426 34.3291Z" fill="#FDFDFD"/>
<path fill-rule="evenodd" clip-rule="evenodd" d="M52.5186 17.7212L53.3238 21.2971H56.5443L53.8193 23.5222L54.6243 27.0981L52.1471 24.873L49.422 27.0187L50.5988 23.4427L48.1215 21.2177H51.342L52.5186 17.7212ZM18.9514 43.4682L19.5087 46.0111H21.8002L19.8184 47.6004L20.3758 50.1433L18.5798 48.554L16.5979 50.1433L17.465 47.6004L15.6689 46.0111H17.9605L18.9514 43.4682ZM21.8621 59.8381L22.4197 62.381H24.7112L22.7292 63.9703L23.2865 66.5132L21.4906 64.9238L19.5087 66.5132L20.3758 63.9703L18.5798 62.381H20.8714L21.8621 59.8381ZM26.4451 56.5801L25.8878 58.3283H24.3395L25.578 59.4409L24.9588 61.1891L26.3212 60.0766L27.56 61.1891L27.1883 59.4409L28.551 58.3283H27.0027L26.4451 56.5801ZM63.5426 71.0428L63.7902 72.2347H64.8432L63.9761 72.95L64.2239 74.1418L63.4188 73.4268L62.5517 74.1418L62.9234 72.95L62.1182 72.2347H63.171L63.5426 71.0428ZM68.8069 69.6918L69.0547 70.8839H70.1074L69.2403 71.5989L69.4881 72.791L68.683 72.0757L67.8159 72.791L68.1876 71.5989L67.3825 70.8839H68.4352L68.8069 69.6918ZM72.213 71.2811L72.4608 72.4732H73.5137L72.6467 73.1883L72.8945 74.3804L72.0893 73.665L71.2223 74.3804L71.5938 73.1883L70.7886 72.4732H71.8415L72.213 71.2811ZM77.8489 68.8971L78.0348 70.0892H79.0875L78.1587 70.8043L78.3443 71.9964L77.6012 71.2811L76.6723 71.9964L77.1677 70.8043L76.4245 70.0892H77.4775L77.8489 68.8971ZM79.1495 54.8316L79.4592 56.9773H81.379L79.645 58.3283L79.8926 60.3944L78.5302 59.0434L76.796 60.3944L77.6631 58.2488L76.3006 56.898H78.2206L79.1495 54.8316ZM67.5683 75.0954L67.9398 76.685H69.3642L68.1256 77.7179L68.4971 79.3072L67.3825 78.2743L66.1437 79.3072L66.7012 77.7179L65.5863 76.685H67.0108L67.5683 75.0954ZM59.6409 75.8903L60.1363 77.9564H62.0563L60.446 79.2279L60.9414 81.294L59.4551 80.0225L57.8448 81.294L58.526 79.2279L57.0397 77.9564H58.9597L59.6409 75.8903ZM68.1876 80.4993L68.4971 81.9297H69.7359L68.683 82.8037L68.9927 84.1547L68.0017 83.2805L66.9488 84.1547L67.3825 82.8037L66.3915 81.9297H67.6301L68.1876 80.4993ZM30.8425 65.6392L31.214 67.3078H32.7003L31.4617 68.341L31.8332 70.0096L30.6566 68.9767L29.4178 70.0096L29.9754 68.341L28.7986 67.3078H30.2849L30.8425 65.6392ZM29.1702 71.9168L29.5417 73.5857H31.0281L29.7895 74.6189L30.161 76.2875L28.9844 75.2544L27.7458 76.2875L28.3032 74.6189L27.1264 73.5857H28.6127L29.1702 71.9168ZM36.1067 76.526L36.664 78.91H38.8316L37.0355 80.4197L37.593 82.8037L35.9208 81.294L34.1247 82.8037L34.9299 80.4197L33.2577 78.91H35.4254L36.1067 76.526ZM43.1668 63.6524L43.5385 65.4006H45.1488L43.7863 66.5132L44.1578 68.2614L42.9192 67.1489L41.5567 68.2614L42.1141 66.5132L40.8753 65.4006H42.4856L43.1668 63.6524ZM48.3693 58.7255L48.7408 60.4738H50.351L48.9886 61.5863L49.3601 63.3345L48.1215 62.222L46.759 63.3345L47.3164 61.5863L46.0778 60.4738H47.688L48.3693 58.7255ZM53.6335 63.0167L54.005 64.7649H55.6152L54.2528 65.8774L54.6243 67.6257L53.3857 66.5132L52.0232 67.6257L52.5806 65.8774L51.342 64.7649H52.9523L53.6335 63.0167ZM46.759 67.6257L46.2634 69.056H44.9629L45.9539 69.9303L45.4583 71.3607L46.5112 70.4864L47.5022 71.3607L47.2544 69.9303L48.3073 69.056H47.0686L46.759 67.6257ZM47.0686 74.6189L47.5022 76.526H49.2362L47.7498 77.7179L48.1834 79.6251L46.821 78.4332L45.3346 79.6251L45.9539 77.7179L44.5914 76.526H46.4493L47.0686 74.6189ZM57.1636 71.7579L57.4114 72.791H58.3404L57.5353 73.4268L57.7828 74.4597L57.1016 73.824L56.2965 74.4597L56.6062 73.4268L55.925 72.791H56.854L57.1636 71.7579ZM29.8515 50.5405L30.3469 52.8451H32.4525L30.6566 54.2755L31.152 56.5801L29.5417 55.1495L27.8695 56.5005L28.6127 54.1959L27.0027 52.7655H29.1083L29.8515 50.5405ZM19.6326 67.6257L20.0043 69.1356H21.3667L20.1899 70.0892L20.5616 71.5989L19.5087 70.7249L18.332 71.6785L18.8275 70.1686L17.7747 69.1356H19.1372L19.6326 67.6257ZM47.9976 87.4127L48.3693 88.9226H49.7317L48.5549 89.8762L48.9266 91.3859L47.8737 90.4324L46.6971 91.3859L47.1925 89.8762L46.1397 88.9226H47.5022L47.9976 87.4127ZM81.1314 62.7784L81.5029 64.2881H82.8656L81.6887 65.2417L82.0604 66.7517L81.0075 65.7981L79.8307 66.7517L80.3263 65.2417L79.2734 64.2881H80.6358L81.1314 62.7784ZM85.2808 56.898L85.6525 58.4077H87.0149L85.8383 59.3613L86.2098 60.8712L85.1571 59.9177L83.9802 60.8712L84.4756 59.3613L83.4229 58.4077H84.7854L85.2808 56.898ZM61.437 51.8915L61.8085 53.4012H63.171L61.9943 54.3548L62.3658 55.8648L61.3131 54.9112L60.1363 55.8648L60.6319 54.3548L59.5789 53.4012H60.9414L61.437 51.8915Z" fill="#FDFDFD"/>
</g>
<defs>
<clipPath id="clip0_3_92">
<rect width="300" height="97" fill="white"/>
</clipPath>
</defs>
</svg>
